HIERARCHY
ROOT pelvis
{
  OFFSET 0 0 0
  CHANNELS 6 Xposition Yposition Zposition Zrotation Xrotation Yrotation
  JOINT spine_01
  {
    OFFSET 10.8089 -0.851415 0
    CHANNELS 3 Zrotation Xrotation Yrotation
    JOINT spine_02
    {
      OFFSET 18.8753 3.80116 0
      CHANNELS 3 Zrotation Xrotation Yrotation
      JOINT spine_03
      {
        OFFSET 13.4073 0.420477 0
        CHANNELS 3 Zrotation Xrotation Yrotation
        JOINT clavicle_l
        {
          OFFSET 11.8837 -2.73209 -3.78198
          CHANNELS 3 Zrotation Xrotation Yrotation
          JOINT upperarm_l
          {
            OFFSET 15.7849 0 0
            CHANNELS 3 Zrotation Xrotation Yrotation
            JOINT lowerarm_l
            {
              OFFSET 30.3399 0 0
              CHANNELS 3 Zrotation Xrotation Yrotation
              JOINT hand_l
              {
                OFFSET 26.9751 0 0
                CHANNELS 3 Zrotation Xrotation Yrotation
                End Site
                {
                  OFFSET 0 0 0
                }
              }
            }
          }
        }
        JOINT clavicle_r
        {
          OFFSET 11.8838 -2.7321 3.782
          CHANNELS 3 Zrotation Xrotation Yrotation
          JOINT upperarm_r
          {
            OFFSET -15.7848 0 0
            CHANNELS 3 Zrotation Xrotation Yrotation
            JOINT lowerarm_r
            {
              OFFSET -30.34 0 0
              CHANNELS 3 Zrotation Xrotation Yrotation
              JOINT hand_r
              {
                OFFSET -26.9752 2.55532e-005 0
                CHANNELS 3 Zrotation Xrotation Yrotation
                End Site
                {
                  OFFSET 0 0 0
                }
              }
            }
          }
        }
        JOINT neck_01
        {
          OFFSET 16.5588 -0.355317 0
          CHANNELS 3 Zrotation Xrotation Yrotation
          JOINT head
          {
            OFFSET 9.28362 0.364158 0
            CHANNELS 3 Zrotation Xrotation Yrotation
            End Site
            {
              OFFSET 0 0 0
            }
          }
        }
      }
    }
  }
  JOINT thigh_l
  {
    OFFSET -1.44882 -0.531424 -9.00581
    CHANNELS 3 Zrotation Xrotation Yrotation
    JOINT calf_l
    {
      OFFSET -42.572 0 0
      CHANNELS 3 Zrotation Xrotation Yrotation
      JOINT foot_l
      {
        OFFSET -40.1967 0 0
        CHANNELS 3 Zrotation Xrotation Yrotation
        JOINT ball_l
        {
          OFFSET -10.4538 -16.5779 0.0801573
          CHANNELS 3 Zrotation Xrotation Yrotation
          End Site
          {
            OFFSET 0 0 0
          }
        }
      }
    }
  }
  JOINT thigh_r
  {
    OFFSET -1.44865 -0.531428 9.0058
    CHANNELS 3 Zrotation Xrotation Yrotation
    JOINT calf_r
    {
      OFFSET 42.5723 0 0
      CHANNELS 3 Zrotation Xrotation Yrotation
      JOINT foot_r
      {
        OFFSET 40.1968 0 -1.14441e-005
        CHANNELS 3 Zrotation Xrotation Yrotation
        JOINT ball_r
        {
          OFFSET 10.4538 16.5778 -0.0801582
          CHANNELS 3 Zrotation Xrotation Yrotation
          End Site
          {
            OFFSET 0 0 0
          }
        }
      }
    }
  }
}
MOTION
Frames:	6
Frame Time:	0.0333333
1.97844 122.19 -16.7666 -1.76979 -55.8316 -88.2921 -17.7988 1.84165 0.564396 7.94076 0.298564 -0.507328 -3.34274 0.242117 -0.532036 -6.95569 23.2141 92.813 -35.582 16.2261 36.3895 -51.2861 -6.96377 1.09515 -133.237 -25.9594 -93.7439 172.938 17.979 92.3057 -28.5897 28.4607 11.3076 -69.3527 -7.3438 1.31384 -84.9491 -24.8554 -57.2283 -13.1429 -1.13967 0.222466 31.7411 -7.54824 0.818087 103.104 -3.05075 -4.9538 -87.3919 11.0896 -6.03808 9.12725 7.30218 17.5425 -91.8836 0.00394553 0.00895438 -59.2314 11.6484 -1.10491 -108.859 13.359 -6.66416 20.2516 6.03354 -15.9406 -91.8836 0.00393566 0.00895012 
2.07749 115.784 -15.2527 -0.840409 -55.1182 -86.9446 -14.714 2.17787 0.9354 9.83173 0.163978 -0.17958 -1.45101 0.180971 -0.1915 -6.83166 24.2222 92.674 -26.6212 19.9234 35.0047 -69.3557 -7.34433 1.31372 -123.474 -30.0767 -84.7671 173.064 21.0169 92.4626 -23.538 32.0244 14.426 -77.558 -7.53477 1.37106 -81.8075 -26.1 -53.3098 -13.8689 -1.34153 0.259701 26.7318 -9.36395 -0.476696 93.3368 -4.34166 -5.42275 -76.5726 9.53848 -5.59397 4.14826 6.54936 16.1567 -91.8836 0.00394553 0.00895438 -68.0898 12.9097 -0.289986 -105.435 13.0043 -7.13225 20.0519 7.24306 -14.7149 -91.8836 0.00393566 0.00895012 
2.36586 108.015 -12.8474 -0.401423 -56.8554 -86.3199 -12.9384 2.64 1.43606 11.176 0.265299 0.265991 -0.105392 0.345895 0.246279 -7.01612 25.1957 93.1974 -16.7723 24.8566 33.5718 -82.7249 -7.65882 1.39248 -116.383 -34.9161 -78.2496 173.229 24.43 92.5693 -17.7632 38.538 18.0226 -85.6512 -7.72909 1.40003 -78.5593 -27.0476 -48.8276 -14.9277 -1.5136 0.410685 21.6409 -10.8675 -1.81047 78.9557 -3.05021 -7.30177 -61.4403 7.5229 -4.34894 -5.01906 2.50425 14.0459 -91.8836 0.00394553 0.00895438 -81.1254 13.406 0.141706 -97.3741 12.0751 -6.89783 15.6124 4.28613 -10.313 -91.8836 0.00393566 0.00895012 
2.61306 98.4473 -9.98283 1.45271 -61.1895 -85.2597 -12.5574 1.88865 2.49725 11.7745 0.458666 0.746824 0.494329 0.57045 0.716292 -7.28634 25.7591 93.8349 -7.14392 30.8117 32.2248 -87.2502 -7.7682 1.40218 -113.405 -37.9156 -75.1718 173.424 26.7714 92.4576 -12.1281 45.6507 22.9483 -90.8312 -7.8549 1.40529 -77.0268 -28.6432 -45.9467 -16.714 -1.5289 0.501747 16.6997 -11.3628 -3.0942 63.1534 0.110711 -7.90492 -47.952 5.66997 -2.879 -8.82592 -0.995839 9.96263 -91.8836 0.00394553 0.00895438 -97.0341 13.1355 -0.878553 -85.366 6.84809 -6.07946 8.18763 -0.790905 -5.72407 -91.8836 0.00393566 0.00895012 
2.54413 88.5962 -8.15728 7.13022 -65.321 -81.844 -12.8815 -0.539392 4.70682 11.6615 0.365727 1.30477 0.377885 0.481048 1.28063 -7.41927 26.0086 94.1293 -1.74113 35.1712 33.5177 -82.7077 -7.65843 1.39242 -113.574 -37.5396 -75.5247 173.559 27.6554 92.2775 -9.30879 49.3584 31.7531 -90.5758 -7.84842 1.40537 -79.2469 -32.7393 -47.6631 -18.6992 -1.33502 0.278862 13.9499 -10.8534 -4.32115 54.5685 1.10333 -4.5729 -48.0515 3.80832 -3.13663 5.55121 0.490729 6.53524 -91.8836 0.00394553 0.00895438 -110.53 12.5189 -3.15692 -73.994 -4.40273 -5.6528 5.32004 -1.32291 -3.95945 -91.8836 0.00393566 0.00895012 
2.13619 79.6628 -8.67474 16.1323 -65.7832 -74.1949 -13.7056 -2.48044 5.43402 10.9667 -0.235007 1.65651 -0.317228 -0.126717 1.67196 -7.76462 25.7712 94.8176 -4.71751 33.2013 39.2694 -72.1833 -7.40913 1.33652 -116.06 -36.3525 -79.9293 173.488 28.7578 92.5437 -11.1337 46.0555 44.7929 -84.8148 -7.70889 1.39831 -85.1408 -38.4887 -55.803 -19.4273 -1.14245 0.0508536 16.44 -10.9587 -5.36561 61.4517 -2.15885 0.448644 -66.7365 5.71022 -5.22641 27.3166 3.09689 9.11681 -91.8836 0.00394553 0.00895438 -113.917 11.5648 -3.91571 -73.8383 -7.54033 -6.39816 19.4117 -1.47431 -6.7808 -91.8836 0.00393566 0.00895012 
